<svg class="svg-icon" style="width: 1em; height: 1em; vertical-align: middle; fill: currentColor; overflow: hidden;" viewBox="0 0 1024 1024" version="1.1" xmlns="http://www.w3.org/2000/svg"><path d="M512 912c-220.6 0-400-179.4-400-400 0-109.6 43.4-211.8 122.4-288 12.8-12.4 33.2-12 45.4 0.8 12.4 12.8 12 33.2-0.8 45.4-66.2 64-102.6 149.8-102.6 241.8 0 185 150.6 335.6 335.6 335.6S847.6 697 847.6 512c0-174.2-133.4-318-303.6-334.2v125.2c0 17.8-14.4 32.2-32.2 32.2s-32.2-14.4-32.2-32.2V144.2c0-17.8 14.4-32.2 32.2-32.2 220.6 0 400 179.4 400 400S732.6 912 512 912z" /><path d="M351.8 323.8l199 143c27 19.4 33.4 57 14 84s-57 33.4-84 14c-5.6-4-10.4-8.8-14-14l-143-199c-6.4-9-4.4-21.6 4.6-28 7.2-5.2 16.6-4.8 23.4 0z" />
</svg>