<?xml version="1.0" encoding="UTF-8"?>
<svg id="Layer_2" xmlns="http://www.w3.org/2000/svg" version="1.1" viewBox="0 0 800 800">
  <!-- Generator: Adobe Illustrator 29.4.0, SVG Export Plug-In . SVG Version: 2.1.0 Build 152)  -->
  <path d="M400,0C179.44,0,0,179.44,0,400s179.44,400,400,400,400-179.44,400-400S620.56,0,400,0ZM697.43,210.66c30.97,48.49,50.41,105.02,54.45,165.69l-168.55.11c-1.14-42.63-5.33-83.96-12.35-122.63,64.95-9.23,86.3-24,126.45-43.17ZM668.68,171.8c-34.88,15.37-51.92,27.52-107.85,35.41-6.83-26.57-15.12-51.41-24.78-73.95-13.52-31.57-29.36-57.45-46.95-77.17,86.27,17.2,130.99,58.59,179.58,115.71ZM426,265.03c29.75-.63,62.61-2.29,91.48-4.95,6.69,36.51,10.71,75.74,11.84,116.35l-103.32-.06v-111.34ZM377,376.33l-106.32-.07c1.13-40.61,5.15-79.83,11.84-116.34,29.84,2.79,63.95,4.54,94.48,5.14v111.26ZM377,423.64v111.28c-30.52.58-64.63,2.26-94.48,5.01-6.69-36.51-10.71-75.74-11.84-116.35l106.32.07ZM426,423.67l103.32.06c-1.13,40.61-5.15,79.83-11.84,116.34-28.87-2.7-61.73-4.42-91.48-5.08v-111.32ZM485.49,149.86c8.31,19.39,15.52,40.71,21.58,63.51-25.66,2.28-54.68,3.74-81.07,4.33V67.72c20.41,13.98,42.54,42.57,59.49,82.14ZM377,65.75v151.99c-27.19-.58-57.43-2.11-84.07-4.52,6.06-22.79,13.27-44.09,21.58-63.48,17.79-41.49,41.27-70.88,62.5-84ZM310.9,55.98c-17.58,19.7-33.43,45.56-46.95,77.11-9.66,22.53-17.95,47.35-24.78,73.92-55.93-7.96-72.97-19.84-107.85-35.21,48.59-57.13,93.31-98.73,179.58-115.82ZM102.57,210.66c40.15,19.17,61.5,33.65,126.45,42.96-7.02,38.66-11.21,79.99-12.35,122.61l-168.55.11c4.04-60.67,23.47-117.2,54.45-165.69ZM102.57,589.34c-30.97-48.48-50.41-105.01-54.45-165.69l168.55-.11c1.14,42.63,5.33,83.96,12.35,122.63-64.95,9.23-86.3,24-126.45,43.17ZM131.32,628.2c34.88-15.37,51.92-27.52,107.85-35.41,6.83,26.57,15.12,51.41,24.78,73.95,13.52,31.57,29.36,57.45,46.95,77.17-86.27-17.2-130.98-58.59-179.58-115.71ZM314.51,650.14c-8.31-19.39-15.52-40.71-21.58-63.51,26.64-2.37,56.89-3.85,84.07-4.39v151.99c-21.22-13.14-44.71-42.58-62.49-84.09ZM426,732.3v-149.98c26.4.62,55.41,2.14,81.07,4.45-6.06,22.79-13.27,44.09-21.58,63.48-16.95,39.55-39.08,68.1-59.5,82.05ZM489.1,744.02c17.58-19.7,33.43-45.56,46.95-77.11,9.66-22.53,17.95-47.35,24.78-73.92,55.93,7.96,72.97,19.84,107.85,35.21-48.59,57.13-93.31,98.73-179.58,115.82ZM697.43,589.34c-40.15-19.17-61.5-33.65-126.45-42.96,7.02-38.66,11.21-79.99,12.35-122.61l168.55-.11c-4.04,60.67-23.47,117.2-54.45,165.69Z"/>
</svg>